# xmcd
#
# Track frame offsets:
#	182
#	21447
#	41032
#	61432
#	79282
#	104107
#	129310
#	151445
#	171832
#	198982
#
# Disc length: 3024 seconds
#
# Revision: 2
# Processed by: cddbd v1.5.1PL2 Copyright (c) Steve Scherf et al.
# Submitted via: audiograbber 1.83.01
#
DISCID=8c0bce0a
DTITLE=Blue Moon Wranglers - Open Skies
DYEAR=1900
DGENRE=Guitar
TTITLE0=Long Gone Train
TTITLE1=Back Road Rambling
TTITLE2=Sunburst
TTITLE3=Stargazin'
TTITLE4=Twang Chung
TTITLE5=Open Skies
TTITLE6=Montana Moon
TTITLE7=All Bayou Self
TTITLE8=Trail Dust
TTITLE9=Desert Mystery
EXTD=
EXTT0=
EXTT1=
EXTT2=
EXTT3=
EXTT4=
EXTT5=
EXTT6=
EXTT7=
EXTT8=
EXTT9=
PLAYORDER=
